<svg width="20" height="20" viewBox="0 0 20 20" fill="none" xmlns="http://www.w3.org/2000/svg">
<path d="M15.002 17.9163C14.4242 17.9163 13.9323 17.7136 13.5262 17.308C13.12 16.9036 12.917 16.4119 12.917 15.833C12.917 15.7219 12.9267 15.6072 12.9462 15.4888C12.965 15.37 12.9937 15.2583 13.032 15.1538L6.58033 11.3522C6.37644 11.5822 6.13921 11.7613 5.86866 11.8897C5.59866 12.0186 5.30921 12.083 5.00033 12.083C4.42144 12.083 3.92977 11.8808 3.52533 11.4763C3.11977 11.0713 2.91699 10.5797 2.91699 10.0013C2.91699 9.42356 3.11977 8.93162 3.52533 8.52551C3.92921 8.1194 4.42088 7.91634 5.00033 7.91634C5.30921 7.91634 5.59866 7.98079 5.86866 8.10968C6.13921 8.23801 6.37644 8.41718 6.58033 8.64718L13.032 4.84551C12.9937 4.74106 12.965 4.6294 12.9462 4.51051C12.9267 4.39217 12.917 4.27745 12.917 4.16634C12.917 3.58745 13.1195 3.09579 13.5245 2.69134C13.9289 2.28579 14.4203 2.08301 14.9987 2.08301C15.5764 2.08301 16.0684 2.28551 16.4745 2.69051C16.8806 3.09495 17.0837 3.58634 17.0837 4.16467C17.0837 4.74245 16.8809 5.2344 16.4753 5.64051C16.0709 6.04662 15.5792 6.24967 15.0003 6.24967C14.6914 6.24967 14.402 6.18523 14.132 6.05634C13.8614 5.92801 13.6242 5.74884 13.4203 5.51884L6.96866 9.32051C7.00699 9.42495 7.0356 9.53606 7.05449 9.65384C7.07394 9.77218 7.08366 9.88634 7.08366 9.99634C7.08366 10.1063 7.07394 10.2216 7.05449 10.3422C7.0356 10.4622 7.00699 10.5744 6.96866 10.6788L13.4203 14.4805C13.6242 14.2505 13.8614 14.0713 14.132 13.943C14.402 13.8141 14.6914 13.7497 15.0003 13.7497C15.5792 13.7497 16.0709 13.9522 16.4753 14.3572C16.8809 14.7616 17.0837 15.253 17.0837 15.8313C17.0837 16.4091 16.8814 16.9011 16.477 17.3072C16.072 17.7133 15.5803 17.9163 15.002 17.9163Z" fill="#282830"/>
</svg>
